<svg width="800" height="600" xmlns="http://www.w3.org/2000/svg">

 <g>
  <title>Layer 1</title>
  <path stroke-width="0" id="svg_7" d="m597,86c-55,68 -126,57 -208,3c-82,-54 -116,-47 -191,-21c-75,26 -181,24 -116,229c65,205 64,-234 131,83c67,317 14,-361 67,-184c53,177 136,-115 166,2c30,117 12,42 151,-112z" opacity="NaN" stroke="#ffffff" fill="#ffffff"/>
  <path id="svg_8" d="m389.43739,58.90404c-0.44146,0 -0.66837,-0.39984 -0.66837,-0.87933c0,-0.39975 0.11344,-0.78786 0.44146,-0.78786c0.22691,0 0.56849,0.38811 0.68193,0.78786c0.22691,0.58203 0,0.87933 -0.45502,0.87933zm75.4626,22.81454c1.00998,0 1.23686,0.10255 0.66837,0.78777c-0.32802,0.47948 -1.00995,0.87923 -1.33797,0.87923c-0.34155,0 -0.68193,-0.39975 -0.68193,-0.87923c0,-0.49125 0.45505,-0.78777 1.35153,-0.78777zm-70.51273,-27.90732c-1.00995,-0.19401 -1.12342,-1.17644 0,-1.47305c0.56846,-0.09134 0.89651,0.19398 0.89651,0.78786c0,0.49118 -0.32805,0.77663 -0.89651,0.68519zm-12.58924,31.03571c1.35153,-0.28547 1.35153,-0.49066 0.89651,-1.16471c-0.34038,-0.49066 -0.45382,-1.08448 -0.22691,-1.27852c0.11344,-0.29714 0.68193,0 1.00995,0.58209c0.45502,0.78786 0.79537,0.89103 1.69188,0.39975c0.55617,-0.29659 1.00995,-0.49112 1.00995,-0.19398c0,0.19398 0.34158,0 0.78304,-0.39975c0.68196,-0.58209 0.7954,-1.86114 0.11347,-2.54639c-0.55493,-0.58209 -3.37143,-0.38805 -4.15447,0.29659c-0.45382,0.49128 -0.7954,0.38867 -1.23686,-0.49056c-0.68193,-1.46194 -0.68193,-1.66719 0.89648,-1.75853c1.35153,0 1.35153,0 0.22691,-0.59382c-0.56726,-0.28547 -1.12339,-0.87923 -1.12339,-1.26735c0,-0.98237 1.56608,-1.56446 2.24801,-0.8792c0.22691,0.28541 0.6684,0.58209 1.12342,0.58209c0.89651,0 5.17675,-3.32255 5.17675,-4.00781c0,-0.29711 0.44269,-0.49109 0.89651,-0.29711c0.55613,0.10313 1.56611,-0.19398 2.58963,-0.68525c1.45141,-0.7878 1.45141,-0.87923 0.66837,-2.15775c-0.55493,-0.87923 -1.23686,-1.17644 -2.8153,-1.17644c-1.79299,0 -2.24801,0.19407 -2.80294,1.37051c-0.22814,0.78777 -0.91004,1.36989 -1.35153,1.36989c-0.78304,0 -1.00995,-0.87871 -0.22691,-1.36989c0.34035,-0.19407 0.56726,-0.87923 0.56726,-1.56449c0,-1.07334 -0.22691,-1.26735 -1.69188,-0.98184c-1.46497,0.19398 -1.46497,0.10255 -1.12342,-1.37057c0.22691,-0.8792 0.55493,-1.667 0.78307,-1.75844c0.22691,-0.10255 0.45378,-0.98184 0.45378,-1.86107c0,-1.75862 0.6696,-2.05521 1.9077,-0.78786c0.56722,0.68522 0.90884,0.78786 1.12339,0.19398c0.22691,-0.38805 1.02227,-0.47948 2.26037,-0.2855c1.67955,0.38811 1.79299,0.2855 1.56608,-0.87923c-0.11344,-0.68516 -0.22811,-1.47302 -0.34155,-1.667c0,-0.29668 -0.55493,-0.68525 -1.22453,-0.98193c-1.35153,-0.49109 -1.69188,-1.667 -0.45502,-1.667c0.34158,0 0.66957,-0.19407 0.66957,-0.58271c0,-0.29668 0.68196,-0.49066 1.57844,-0.39981c1.23809,0.10313 1.90646,-0.28535 3.59834,-2.34046c1.23809,-1.47312 2.13457,-2.26092 2.24804,-1.86117c0.11344,0.49066 0.68193,0.77607 1.23806,0.77607c0.89651,0 1.00998,-0.28541 0.68196,-1.56393c-0.11467,-0.8793 -0.68196,-1.95251 -1.02351,-2.44378c-1.00998,-1.08491 -1.00998,-2.35226 0,-1.9643c0.79537,0.38867 3.27028,-0.68464 3.27028,-1.36986c0,-0.29714 0.32926,-0.49118 0.78304,-0.49118c0.45505,0 0.6696,0.59379 0.6696,1.37048c0,0.98184 0.22691,1.36995 0.7954,1.08445c0.44146,-0.20521 0.78307,-0.78786 0.78307,-1.17588c0,-1.1765 3.5983,-3.23165 4.49478,-2.64903c0.34162,0.19413 0.68193,0 0.79667,-0.68516c0.32799,-1.37048 2.36021,-2.44378 3.25669,-1.75853c0.45505,0.28541 0.89655,0.19407 1.01122,-0.10255c0.22687,-0.38864 1.12339,-0.68525 2.13334,-0.77675c1.00995,-0.10255 2.36148,-0.49118 2.92997,-0.89093c2.13334,-1.26735 4.26794,-1.17591 5.16442,0.19466c0.56849,0.98178 0.79537,0.98178 0.79537,0.29652c0,-0.8793 0.44273,-0.98184 3.14456,-0.68516c4.28027,0.38864 4.94987,0.38864 6.52831,-0.10264c1.00995,-0.28547 1.3515,-0.19404 1.3515,0.59373c0,0.49128 0.32805,0.87933 0.78307,0.87933c0.34035,0 0.66837,-0.2855 0.66837,-0.58265c0,-0.78777 1.80659,-1.17588 3.38499,-0.78777c1.22453,0.38864 1.33797,0.49109 1.00995,3.12891c-0.11344,1.57566 0,2.64897 0.21458,2.64897c0.22687,0 0.45502,-0.68525 0.45502,-1.6671c0,-1.65592 1.23686,-2.34062 1.69188,-0.98187c0.11347,0.49069 0.44146,0.29662 0.66837,-0.47945c0.56853,-2.05573 1.80659,-0.98246 1.46497,1.26735c-0.34031,1.86107 -0.34031,1.86107 0.66964,1.17582c0.56846,-0.29662 1.00991,-1.07321 1.00991,-1.56393c0,-0.49121 0.34162,-1.07383 0.79543,-1.27908c0.89644,-0.38796 1.90766,1.08454 1.57841,2.15828c-0.11344,0.49075 -0.11344,0.8793 0.21455,0.8793c0.22814,0 0.45505,-0.28541 0.45505,-0.49118c0,-0.28547 0.55613,-0.38811 1.23806,-0.19398c1.46377,0.29662 1.67832,1.08439 0.44149,1.56387c-0.32802,0.20577 -0.6696,0.68525 -0.6696,1.08507c0,0.68525 0.22811,0.68525 1.46497,0c2.0199,-1.17588 2.91638,-1.08507 3.25799,0.19398c0.22687,0.68525 0.66957,0.9824 1.12339,0.68525c0.45502,-0.10261 1.46497,0.29714 2.24804,0.98184c0.68193,0.58262 1.69188,1.0733 2.1469,1.0733c0.6696,0 0.6696,0.49125 0.44146,1.86166c-0.22687,1.47312 -0.22687,1.6671 0.45505,1.07337c0.89648,-0.97076 1.23686,-0.87939 1.56611,0.49056c0.11344,0.68525 0.9088,1.17644 1.80532,1.47305c1.00995,0.19466 1.56611,0.68522 1.56611,1.26787c0,0.59379 0.34031,1.27852 0.68193,1.66716c0.89651,0.68516 0.66837,2.74031 -0.34162,3.42553c-0.34031,0.20525 -0.78301,0.10264 -0.89648,-0.19398c-0.22687,-0.2972 -1.00995,-0.2972 -2.47495,0c-2.36148,0.68464 -2.80294,0.87923 -2.24801,1.76964c0.34158,0.58209 4.26914,0.38811 6.41484,-0.29714c0.6696,-0.29665 0.89651,0 0.89651,1.37051c0,0.98178 -0.22691,1.75853 -0.56726,1.75853c-0.22814,0 -0.44269,0.29659 -0.44269,0.78777c0,1.17638 0.55617,1.07321 2.02113,-0.29668c0.7818,-0.78777 1.23682,-0.98237 1.79299,-0.49109c0.56726,0.49109 0.68193,0.49109 0.68193,-0.29668c0,-0.48007 -0.22814,-0.87923 -0.56846,-0.87923c-0.21458,0 -0.44273,-0.38864 -0.44273,-0.77675c0,-0.49112 0.32926,-0.87923 0.78304,-0.87923c0.34158,0 0.7954,0.19398 0.7954,0.47948c0,0.29727 0.44269,0.68522 1.01119,0.78786c0.78184,0.2972 1.00995,0.68525 0.89648,1.86114c-0.22811,2.24965 0.22694,2.93497 1.90646,2.54692c0.7954,-0.19466 1.23682,0 0.89651,0.38805c-0.10111,0.19398 0,0.68525 0.22691,0.89035c0.91004,0.58268 0.56846,1.95266 -0.44149,1.95266c-1.23806,0 -1.57844,0.49109 -0.9088,1.37042c0.45378,0.49118 0.79537,0.58209 1.23682,0.19404c1.02351,-0.98184 1.23809,-0.19404 1.35153,3.72283c0,1.96362 0.22691,3.52817 0.45382,3.52817c0.55613,0 0.34158,2.15828 -0.45382,3.03751c-0.44269,0.49066 -0.44269,0.97011 -0.11344,1.36986c0.79537,0.87933 0,3.42572 -1.01122,3.42572c-0.89644,0 -2.58836,1.86107 -2.58836,2.74037c0,1.07389 -1.45141,0 -1.79299,-1.17591c-0.34035,-1.07327 -0.34035,-1.07327 -0.56849,-0.29714c-0.21455,0.89096 1.01119,3.63133 2.03349,4.40793c0.66957,0.59388 -0.56849,1.57566 -1.465,1.17591c-0.45505,-0.19398 -0.6696,-0.77607 -0.6696,-1.36989c0,-1.667 -2.8153,-5.86938 -4.94987,-7.44498c-1.13571,-0.77675 -2.1457,-1.65598 -2.1457,-1.95257c0,-0.59382 -3.59954,-2.44378 -5.61944,-3.03757c-1.12466,-0.29714 -1.465,-0.19401 -1.465,0.59379c0,0.58209 -0.21455,0.77607 -0.6696,0.58209c-1.00995,-0.38811 -1.46497,0.49128 -0.56846,1.37051c1.23806,1.07327 1.02351,2.35226 -0.32802,1.86107c-0.90884,-0.29662 -1.02231,-0.19407 -0.68193,1.47309c0.11344,0.97067 0.34158,2.24965 0.34158,2.83174c0,0.59382 0.22687,0.98193 0.45378,0.98193c0.32929,0 0.44269,-0.19407 0.21458,-0.49066c-0.11344,-0.2972 0.11471,-0.58265 0.56846,-0.58265c0.34162,0 0.6696,0.38858 0.6696,0.77663c0,0.39981 -0.44266,0.78777 -1.23806,0.68532c-0.66837,0 -1.23686,-0.2855 -1.23686,-0.47955c0,-0.89103 -3.03108,-6.95438 -3.92756,-7.84479c-1.00998,-0.97076 -0.34038,-1.26735 -8.32134,3.33416c-1.23682,0.68525 -2.58836,2.15828 -3.27028,3.23165c-0.55617,1.07321 -1.45264,2.15828 -1.90646,2.35226c-0.45502,0.19407 -2.13457,1.75853 -3.59958,3.42562c-6.3014,7.34181 -5.27789,8.22111 -4.8364,23.21435c1.90766,11.36126 1.90766,11.36126 1.90766,11.36126c-4.49605,0 -4.49605,0 -4.49605,0c-3.71178,0 -3.71178,0 -3.71178,0c0.34035,-10.48261 0.34035,-10.48261 0.34035,-10.48261c0.22687,-0.87865 0.34158,-2.64887 0.45505,-3.63081c0.11344,-0.58262 -3.15688,-3.12901 -3.04341,-3.71104c0,-0.49118 3.38376,0.87933 3.38376,0.38805c0.55613,-7.14783 0,-12.83437 -1.465,-15.86074c-0.34035,-1.86117 -3.15685,-7.8442 -3.5983,-7.8442c-0.11347,0 -0.90884,-0.58262 -1.69188,-1.26787c-1.35157,-1.27846 -1.90646,-1.36995 -9.44596,-1.75853c-8.09439,-0.39922 -8.09439,-0.39922 -8.09439,-0.39922c-1.91879,1.36995 -1.91879,1.36995 -1.91879,1.36995c-1.12339,0.89093 -2.24801,1.47305 -2.57606,1.47305c-0.68193,0 -3.49843,2.05564 -4.72296,3.23146c-0.11344,0 -0.22687,-0.10245 -0.22687,-0.19398c-0.11347,0 -0.11347,0 -0.11347,-0.10261c-0.11344,-0.28541 -0.22811,-0.58262 -0.45502,-0.87923c0.68193,-0.49118 1.23806,-0.78833 1.46497,-0.68516c0.34035,0.19398 0.6696,0 0.6696,-0.49128c0,-0.49066 -0.6696,-0.68522 -2.46259,-0.49066c-2.14693,0.29668 -2.70306,0.39922 -3.04341,1.56396c-0.55617,0.59379 -0.6696,1.47309 -0.34035,2.15834c-0.11471,0.87923 -0.11471,1.47302 0,1.47302c0.11344,0 0.22687,-0.19398 0.56726,-0.39975c0,0.10264 0.11344,0.20577 0.22811,0.29714c-1.12462,0.29662 -1.69311,1.17591 -1.57844,2.05515c-0.56846,0.39975 -1.12462,0.59379 -1.80652,0.89041c0,0 0,-0.10255 -0.10115,-0.10255c0.44269,-0.87923 0.6696,-1.86117 0.78304,-3.33419c0.22814,-1.65598 0.11344,-2.74037 -0.22687,-2.74037c-0.22691,0 -0.45502,0.39975 -0.45502,0.98175c0.1134,0.49128 -0.10115,0.98193 -0.55496,1.07337c-0.34158,0.10255 -0.56846,-0.09143 -0.56846,-0.58209c0,-1.17644 -0.44149,-1.17644 -1.45268,-0.10313c-0.45378,0.39975 -1.3503,0.8793 -2.13334,1.08507c-1.02351,0.28541 -1.35153,0.09134 -1.80655,-0.98193c-0.34035,-0.87923 -0.56726,-1.86166 -0.34035,-2.24971c0.11344,-0.49118 0.11344,-0.89041 -0.32802,-0.89041c-1.23809,0 -0.34158,-1.56455 1.12339,-1.86169zm9.67283,-22.51739c-0.68193,-0.10255 -1.23809,-0.38805 -1.46497,-0.7878c-0.11347,-0.58262 -0.22691,-0.58262 -0.22691,0c0,0.39975 -0.45502,0.68525 -0.89651,0.7878c-0.79537,0 -0.79537,0.10261 0.11347,0.49128c0.5549,0.19398 1.12339,0.49056 1.23682,0.49056c0.10111,0 0.6696,-0.29659 1.23809,-0.49056c1.00995,-0.49128 1.00995,-0.49128 0,-0.49128zm89.17523,15.76931c0.21458,0.19407 0.44149,-0.10313 0.44149,-0.59379c0,-0.38858 -0.22691,-0.77669 -0.44149,-0.77669c-0.34155,0 -0.56846,0.19404 -0.56846,0.47948c0,0.2972 0.22691,0.69695 0.56846,0.891zm-0.79537,0.8793c-0.11344,-0.2972 -0.6696,-0.68522 -1.12462,-0.68522c-0.32802,0 -0.55493,0.38802 -0.32802,0.68522c0.10111,0.29662 0.55613,0.49069 1.00995,0.49069c0.44269,0 0.55613,-0.19407 0.44269,-0.49069zm-1.00995,4.4074c0.34035,0 0.79537,-0.10255 0.79537,-0.19398c0,-0.20577 -0.45502,-0.39975 -0.79537,-0.59382c-0.44269,-0.19404 -0.78307,-0.09143 -0.78307,0.19407c0,0.29714 0.34038,0.59373 0.78307,0.59373zm0.89651,-9.30605c0.45378,-0.19413 0.68189,-0.49125 0.56726,-0.77675c-0.34038,-0.69634 -2.24684,-0.69634 -2.24684,0c0,0.77675 0.6684,1.07337 1.67959,0.77675zm-6.17561,-7.34249c-0.56849,0.2972 -0.90884,0.8793 -0.79543,1.17644c0.56849,0.77616 1.23813,0.58209 1.80535,-0.68525c0.55617,-1.17644 0.32926,-1.37042 -1.00991,-0.49118zm-2.14693,15.08409c2.92994,2.63773 3.04341,2.74037 3.04341,1.86114c0,-0.49066 -0.22691,-0.89041 -0.56849,-0.89041c-0.32799,0 -0.89648,-0.49128 -1.23682,-1.07327c-0.32805,-0.58271 -1.00995,-1.17653 -1.56611,-1.17653c-1.02227,0 -1.02227,0.10316 0.32802,1.27908zm-2.36028,-4.61324c0.68073,0 1.00998,-0.19398 0.56729,-0.28544c-0.34035,-0.19404 -0.89651,-0.19404 -1.23686,0c-0.34162,0.09146 0,0.28544 0.66957,0.28544zm-3.25796,-13.31386c0.34035,0.29668 1.3503,0.68473 2.24677,0.87933c1.57847,0.29659 1.69191,0.29659 0.7954,-0.49118c-1.02227,-0.97076 -3.82521,-1.26735 -3.04217,-0.38814zm-6.85757,-16.2487c-0.34035,0.28541 -0.45378,0.87923 -0.34035,1.26725c0.22691,0.78786 0.89651,0.10264 0.89651,-1.07327c0,-0.59382 -0.11347,-0.68525 -0.55617,-0.19398zm3.37143,21.14744c0.89651,0.4906 1.23809,0.4906 1.69315,-0.1946c0.89648,-1.07334 0.32799,-1.56393 -1.35157,-0.8792c-1.35153,0.48001 -1.35153,0.48001 -0.34158,1.0738zm-2.24677,-4.89874c1.69188,-1.07318 1.69188,-1.07318 0.34035,-1.07318c-0.90884,0 -1.57844,0.38796 -1.91879,1.07318c-0.21458,0.68473 -0.44269,1.07337 -0.32926,1.07337c0,0 0.89651,-0.58268 1.9077,-1.07337zm-2.47495,15.87195c0.7818,1.07337 2.13337,1.07337 1.69188,-0.10261c-0.11344,-0.38858 -0.22811,-0.87923 -0.22811,-0.9824c0,-0.09143 -0.45382,-0.09143 -1.00995,0.10316c-0.90884,0.19404 -0.90884,0.49066 -0.45382,0.98184zm-3.4861,-4.01941c0.89648,1.07334 1.35153,1.17588 2.36148,0.38811c0.6696,-0.49066 0.6696,-0.49066 0,-0.58209c-0.34035,0 -1.23686,-0.10316 -2.0199,-0.2972c-1.12462,-0.38805 -1.12462,-0.38805 -0.34158,0.49118zm-0.11344,-10.67662c0.56846,0 1.23806,-1.56446 0.89651,-2.05511c-0.44149,-0.49118 -1.35033,0.29659 -1.35033,1.17588c0,0.49121 0.22691,0.87923 0.45382,0.87923zm-5.5048,6.65718c-0.68193,0.39975 -0.56846,0.49128 0.32805,0.49128c0.56846,0 1.23682,-0.19466 1.46497,-0.49128c0.34031,-0.7766 -0.78307,-0.7766 -1.79302,0zm0.11347,8.62095c0.10111,0.10316 0.44146,-0.10261 0.78304,-0.58209c0.34031,-0.39975 1.35033,-0.89093 2.13334,-1.085c1.00995,-0.29668 1.465,-0.77613 1.465,-1.47309c0,-1.6553 -1.57844,-1.16474 -3.25803,0.98243c-0.68189,1.08448 -1.23682,1.96377 -1.12335,2.15775zm-1.23806,-4.51007c1.00991,-1.07321 1.00991,-1.26787 0.21451,-1.56449c-0.89648,-0.38811 -1.56484,0.49128 -1.56484,2.05515c-0.11467,1.17644 -0.11467,1.17644 1.35033,-0.49066zm-1.80535,-11.55582c0.11344,0.78777 0.34035,0.68522 1.00991,-0.77669c0.79543,-1.56396 0.79543,-1.76973 0.11347,-1.76973c-0.44146,0 -0.89651,0.29668 -1.00995,0.78789c-0.22691,0.38802 -0.22691,1.27905 -0.11344,1.75853zm-0.55617,-8.02716c0,0.39922 0.21455,1.36995 0.44269,2.05515c0.34035,1.37048 0.34035,1.37048 0.68193,0.19404c0.44146,-1.17582 0,-2.93435 -0.68193,-2.93435c-0.32926,0 -0.44269,0.29652 -0.44269,0.68516zm-7.87861,3.23103c-0.55613,0.68525 -0.55613,1.37051 -0.11467,3.42562c0.22814,1.47305 0.79664,2.94614 1.12462,3.23165c0.56849,0.49118 0.68193,0 0.79537,-3.03705c0,-3.71113 -0.56846,-4.88747 -1.80532,-3.62022zm1.00995,10.38001c0.11347,0.19407 0.34035,-0.19404 0.22691,-0.77666c0,-0.59382 -0.11344,-0.68525 -0.34035,-0.29662c-0.10115,0.38805 -0.10115,0.87923 0.11344,1.07327zm4.05336,-9.20357c-0.11344,0.19407 -0.11344,1.56455 0.22691,3.03705c0.34158,2.54692 0.44269,2.64946 0.55617,0.78833c0.11344,-3.03757 -0.11347,-4.5106 -0.78307,-3.82537zm-3.82645,27.62184c0.68193,-1.17644 1.80535,-3.14021 2.58839,-4.31656c0.89648,-1.26744 1.46497,-2.93444 1.69188,-4.60154c0.32926,-2.63782 0.32926,-2.63782 0.32926,-2.63782c-1.35153,1.46191 -1.35153,1.46191 -1.35153,1.46191c-0.6696,0.78786 -1.12342,1.6671 -1.12342,1.96377c0,0.77663 -2.13457,5.67527 -2.80417,6.55457c-0.34035,0.49056 -0.90884,1.57566 -1.00995,2.35226c-0.56849,2.24925 0.44269,1.86114 1.67955,-0.7766zm-7.98095,10.0828c0.34158,1.95251 0.34158,1.95251 1.465,-2.24974c0.6696,-2.26095 1.67955,-5.88049 2.36148,-8.13026c0.89648,-2.84301 1.23806,-5.19526 1.23806,-8.51825c0,-4.31612 -0.11467,-4.40756 -1.01115,-3.91628c-2.03226,1.26731 -3.15688,4.79548 -3.6107,11.64664c-0.21455,3.52885 -0.44269,7.05702 -0.66957,7.83371c-0.11347,0.7878 0,2.26089 0.22687,3.33419zm0.22814,-25.06434c0.44146,0.97073 0.89651,1.75853 0.89651,1.75853c0.11344,0 0.66833,-0.59382 1.12339,-1.37042c0.56846,-0.6847 1.46497,-1.4725 1.80535,-1.758c1.33917,-0.89093 1.67952,-3.6313 0.55613,-5.49244c-0.89651,-1.6671 -3.37143,-3.52879 -3.82648,-2.93497c-0.22687,0.19404 -0.5549,2.05573 -0.78304,4.21349c-0.45378,3.23155 -0.45378,4.21392 0.22814,5.58381zm-0.68193,-22.42642c0.22691,0.1946 0.45378,0.09143 0.45378,-0.20515c0,-0.38864 -0.22687,-0.77675 -0.45378,-0.97076c-0.34158,-0.20574 -0.55617,-0.10261 -0.55617,0.2855c0,0.29662 0.21458,0.68525 0.55617,0.89041zm-36.43096,26.33153c1.56608,0.10313 1.56608,0.10313 1.56608,0.10313c1.57844,0 3.15688,-1.26787 3.15688,-2.35226c0,-0.68525 -0.11344,-0.68525 -4.72296,2.24912zm0.6696,-2.7404c0,0.2973 0.22691,0.59382 0.56849,0.59382c0.55493,0 2.13334,-1.75853 1.79299,-2.05511c-0.34158,-0.39975 -2.36148,0.8792 -2.36148,1.46129zm1.23806,-6.74852c1.69191,1.95303 2.47495,2.14707 3.37143,0.8792c0.90884,-1.17582 0.11347,-1.96368 -2.58959,-2.24919c-2.24681,-0.2972 -2.24681,-0.2972 -0.78184,1.36998zm-1.23806,-5.49194c0,0.20515 0.79537,0.68464 1.69188,1.08439c4.1545,1.86117 4.94987,1.86117 4.8364,0.09153c0,-1.07337 -1.69188,-3.42569 -2.36148,-3.42569c-0.79537,0 -4.1668,1.86114 -4.1668,2.24977zm6.07449,13.90765c1.23686,0 1.3503,-0.29668 0.34035,-0.77616c-0.45502,-0.10313 -0.89651,0 -1.00995,0.2855c-0.22814,0.29652 0.11344,0.49066 0.6696,0.49066zm0.89651,-23.00861c-0.78307,-0.49125 -1.79426,-0.68522 -2.24804,-0.49125c-0.78304,0.38864 -0.6696,0.49125 0.45378,0.78777c0.55617,0.19466 1.69315,0.38867 2.24804,0.4801c0.6696,0 0.6696,-0.1946 -0.45378,-0.77663zm-0.10111,3.52817c0.66833,0 0.78304,-0.10261 0.32802,-0.39922c-0.32802,-0.09137 -0.78307,-0.09137 -1.00998,0.10264c-0.11344,0.19398 0.22691,0.38811 0.68196,0.29659zm0.66833,2.2498c-1.57841,0 -1.57841,0.09134 -0.66833,0.8792c1.12339,0.87923 1.45141,0.98178 1.90646,0.38805c0.78301,-0.77616 0.22687,-1.26725 -1.23813,-1.26725zm2.24808,-11.06473c-0.45505,-0.49118 -0.56849,0.38811 -0.34038,1.46139c0.11344,0.68525 0.56726,1.27898 0.7954,1.27898c0.44146,0 0.11344,-2.15828 -0.45502,-2.74037zm3.5983,12.92571c-0.22687,0.09153 0.34158,0.68525 1.01119,1.1765c0.68193,0.49066 1.23682,0.68467 1.23682,0.38805c0,-0.68516 -1.90643,-1.96421 -2.24801,-1.56455zm-2.8153,0.68525c-1.00995,0.68532 -0.44146,2.44375 1.02231,2.74043c0.78304,0.19401 2.02113,0.98187 2.80417,1.75847c0.68193,0.78786 1.23682,1.08507 1.23682,0.78786c0,-0.98184 -4.49482,-5.68651 -5.06331,-5.28676zm4.60952,8.13036c-0.66957,-1.57625 -1.45264,-2.35241 -2.91765,-2.8436c-1.12339,-0.38805 -2.24801,-0.59373 -2.58836,-0.4906c-0.34158,0.10255 1.00995,1.36989 2.92997,2.84295c3.5983,2.54639 3.5983,2.54639 2.57603,0.49125zm5.97215,-15.08415c-0.22691,0 -0.45505,0.38811 -0.45505,0.77616c0,0.49118 0.22814,0.78786 0.45505,0.78786c0.32802,0 0.55617,-0.29668 0.55617,-0.78786c0,-0.38805 -0.22814,-0.77616 -0.55617,-0.77616zm-1.02227,8.02716c0,0.68516 1.91879,0.19404 2.70183,-0.68525c1.12342,-1.47302 1.00995,-1.86114 -0.45502,-1.86114c-1.00995,0 -2.24681,1.37054 -2.24681,2.54639zm3.27032,-21.14753c-0.34158,1.26735 -0.56849,2.34062 -0.45502,2.44378c0.34155,0.38811 1.23809,-2.54633 1.23809,-3.72277c0,-0.49066 -0.34162,0.10316 -0.78307,1.27898zm5.84638,19.77702c-0.56849,0 -1.00998,0.19466 -1.00998,0.58262c0,0.29668 0.32802,0.49128 0.66837,0.49128c0.45502,0 0.89651,-0.1946 1.01119,-0.49128c0.22691,-0.38796 -0.11467,-0.58262 -0.66957,-0.58262zm-1.35157,18.40707c0.6696,1.77026 1.67955,3.42562 2.24804,3.82537c0.56849,0.29668 1.69188,1.66716 2.36148,3.03757c0.6696,1.36995 1.35153,2.44326 1.465,2.44326c0.5549,0 -0.56849,-9.009 -1.35153,-11.7499c-0.68196,-2.35173 -0.89655,-4.51007 -0.78307,-7.9357c0.10111,-2.54633 0,-4.7961 -0.22687,-4.99011c-0.11347,-0.19404 -0.89651,-0.19404 -1.57844,0c-1.23809,0.38805 -1.35153,0.68525 -1.35153,2.84353c0,1.6554 -0.22694,2.54639 -0.78307,2.93435c-1.57841,0.87933 -1.46497,5.86941 0,9.59162zm-3.25796,-13.11976c-0.22691,-1.47305 -0.45378,-1.6671 -1.69188,-1.6671c-1.465,0 -1.465,0.10261 -1.35153,2.15775c0,1.26787 0.22811,2.7409 0.34155,3.42559c0.11347,0.68525 0.55617,1.37042 1.00998,1.47305c0.89648,0.49125 1.90643,-2.93435 1.69188,-5.3893zm-1.69188,9.8882c-1.00998,-1.17591 -1.69188,-2.44326 -1.79302,-2.74037c0,-0.38805 -0.56846,-1.36989 -1.23686,-2.24919c-0.68193,-0.87923 -1.46497,-1.96424 -1.80655,-2.35235c-1.12339,-1.37042 -0.89651,-0.19398 0.34158,2.84301c0.78304,2.05564 2.13337,3.91681 3.71178,5.48126c2.91761,2.64894 3.25799,2.15785 0.78307,-0.98237zm-1.79302,4.80721c1.22453,0 1.12342,-0.10255 -0.56846,-1.667c-1.12342,-0.98193 -1.90646,-2.05521 -1.90646,-2.54642c0,-0.38802 -1.465,-1.7697 -3.15685,-3.03705c-1.67959,-1.27895 -3.25803,-2.5463 -3.4849,-2.93487c-0.22814,-0.49066 -0.34158,-0.49066 -0.34158,0.09143c0,0.59382 -0.55493,0.68516 -2.36148,0.38805c-1.23686,-0.19407 -2.24681,-0.19407 -2.24681,-0.09091c0,0.19404 0.45378,1.36995 0.90884,2.5463c0.78307,1.9526 1.12339,2.35241 3.59834,3.12851c1.56611,0.49118 4.041,1.66706 5.61944,2.5463c1.465,0.89103 3.25799,1.57566 3.93992,1.57566zm-17.55264,3.32299c0.45502,0 1.12462,-0.19398 1.57841,-0.49109c0.78307,-0.68473 0.11471,-0.68473 -1.3503,0c-0.6696,0.29711 -0.78304,0.38855 -0.22811,0.49109zm-1.23686,-2.44375c1.12342,-0.39916 4.72296,-0.7878 7.99328,-0.7878c6.1744,-0.09143 7.41246,-0.38796 4.93751,-0.98184c-0.78301,-0.19398 -2.57603,-0.68525 -4.041,-1.17591c-2.58839,-0.87923 -7.87984,-0.58262 -8.43477,0.39932c-0.11467,0.1945 -0.68193,0.29711 -1.23806,0.1945c-1.12342,-0.29714 -2.24804,0.49072 -2.58839,2.05521c-0.45502,1.26725 0.34035,1.37042 3.37143,0.29652zm-8.9909,2.24977c0.22691,0.78786 1.35153,0.87923 2.24804,0.19398c0.5549,-0.38802 0.5549,-0.582 0,-1.17582c-0.45502,-0.58271 -0.78304,-0.58271 -1.46497,-0.09143c-0.45502,0.2855 -0.78307,0.77616 -0.78307,1.07327zm-3.59834,6.85125c0.44149,0 0.6684,0.29668 0.44149,0.8793c-0.10115,0.39975 -0.44149,0.7878 -0.6696,0.7878c-0.34035,0 -0.55493,-0.38805 -0.55493,-0.7878c0,-0.47948 0.32802,-0.8793 0.78304,-0.8793z" stroke="#ffffff" fill="#ffffff"/>
 </g>
</svg>